<svg width="270" height="270" xmlns="http://www.w3.org/2000/svg">
 <g>
  <title>background</title>
  <rect x="-1" y="-1" width="272" height="272" id="canvas_background" fill="none"/>
 </g>

 <g>
  <title>Layer 1</title>
  <path d="m264.015,145.258c0,63.008 -57.738,94.681 -128.937,94.681c-71.215,0 -128.969,-31.673 -128.969,-94.681c-0.001,-63.023 57.753,-124.258 128.968,-124.258c71.2,0 128.938,61.235 128.938,124.258z" fill="#EAE6BB" id="svg_10"/>
  <path d="m264.015,145.258c0,63.008 -57.738,94.681 -128.937,94.681c-71.215,0 -128.969,-31.673 -128.969,-94.681" fill="#DDD6A6" id="svg_11"/>
  <circle cx="73.748" cy="159.004" r="11.532" fill="#113E49" id="svg_12"/>
  <path d="m85.279,158.98c0,6.388 -5.167,11.54 -11.54,11.54c-6.372,0 -11.524,-5.152 -11.524,-11.54" id="svg_13"/>
  <path d="m96.496,183.028c-0.614,0 -1.245,-0.221 -1.725,-0.717c-5.632,-5.624 -13.107,-8.72 -21.047,-8.72l-0.016,0c-7.94,0 -15.399,3.104 -21,8.712c-0.953,0.953 -2.489,0.977 -3.434,0.008c-0.953,-0.922 -0.985,-2.458 -0.031,-3.419c6.538,-6.546 15.218,-10.161 24.458,-10.161l0.016,0c9.263,0 17.951,3.592 24.505,10.145c0.937,0.937 0.937,2.505 0,3.434c-0.466,0.498 -1.08,0.718 -1.726,0.718z" fill="#EAE6BB" id="svg_14"/>
  <circle cx="196.423" cy="159.004" r="11.532" fill="#113E49" id="svg_15"/>
  <path d="m184.859,158.98c0,6.388 5.151,11.54 11.54,11.54c6.372,0 11.524,-5.152 11.524,-11.54" id="svg_16"/>
  <path d="m173.643,183.028c0.599,0 1.229,-0.221 1.709,-0.717c5.632,-5.624 13.107,-8.72 21.047,-8.72l0.016,0c7.94,0 15.415,3.104 21.016,8.712c0.937,0.953 2.473,0.977 3.434,0.008c0.953,-0.922 0.969,-2.458 0.016,-3.419c-6.506,-6.546 -15.218,-10.161 -24.458,-10.161l-0.016,0c-9.248,0 -17.936,3.592 -24.505,10.145c-0.922,0.937 -0.922,2.505 0,3.434c0.48,0.498 1.095,0.718 1.741,0.718z" fill="#EAE6BB" id="svg_17"/>
  <path d="m163.505,181.792c0,3.631 -12.737,15.935 -28.428,15.935s-28.428,-12.304 -28.428,-15.935c0,-3.647 12.737,-20.322 28.428,-20.322s28.428,16.675 28.428,20.322z" fill="#F47603" id="svg_18"/>
  <path d="m163.505,181.792c0,3.631 -12.737,15.935 -28.428,15.935s-28.428,-12.304 -28.428,-15.935c0,-3.647 12.737,3.797 28.428,3.797s28.428,-7.444 28.428,-3.797z" fill="#DD6503" id="svg_19"/>
  <path d="m174.903,45.804l0,-18.172c-12.548,-4.23 -25.915,-6.632 -39.826,-6.632c-13.926,0 -27.301,2.41 -39.865,6.64l0,18.172c0,22.016 17.833,39.849 39.849,39.849c22.009,-0.007 39.842,-17.841 39.842,-39.857z" fill="#AA1111" id="svg_25"/>
  <path d="m95.212,27.64l0,3.403c0,22.016 17.833,39.849 39.849,39.849c22.008,0 39.841,-17.833 39.841,-39.849l0,-3.411c-12.547,-4.23 -25.914,-6.632 -39.825,-6.632c-13.926,0 -27.301,2.41 -39.865,6.64z" fill="#D10F0F" id="svg_26"/>
  <g id="svg_27">
   <path d="m74.173,193.961c-26.049,0 -47.262,-21.197 -47.262,-47.262s21.213,-47.262 47.262,-47.262c26.081,0 47.262,21.197 47.262,47.262s-21.189,47.262 -47.262,47.262zm0,-78.769c-17.369,0 -31.508,14.131 -31.508,31.508s14.139,31.508 31.508,31.508c17.384,0 31.508,-14.131 31.508,-31.508s-14.124,-31.508 -31.508,-31.508z" fill="#238403" id="svg_28"/>
   <path d="m31.842,154.577l-22.969,0c-4.356,0 -7.877,-3.521 -7.877,-7.877c0,-4.356 3.521,-7.877 7.877,-7.877l22.969,0c4.356,0 7.877,3.521 7.877,7.877c0,4.356 -3.521,7.877 -7.877,7.877z" fill="#238403" id="svg_29"/>
   <path d="m195.95,193.961c-26.081,0 -47.262,-21.197 -47.262,-47.262s21.181,-47.262 47.262,-47.262c26.049,0 47.262,21.197 47.262,47.262s-21.213,47.262 -47.262,47.262zm0,-78.769c-17.384,0 -31.508,14.131 -31.508,31.508s14.123,31.508 31.508,31.508c17.369,0 31.508,-14.131 31.508,-31.508s-14.131,-31.508 -31.508,-31.508z" fill="#238403" id="svg_30"/>
   <path d="m261.25,154.577l-22.969,0c-4.356,0 -7.877,-3.521 -7.877,-7.877c0,-4.356 3.521,-7.877 7.877,-7.877l22.969,0c4.372,0 7.877,3.521 7.877,7.877c0,4.356 -3.513,7.877 -7.877,7.877z" fill="#238403" id="svg_31"/>
   <rect x="114.259" y="121.1" width="47.262" height="15.754" fill="#238403" id="svg_32"/>
  </g>
  <g id="svg_33"/>
  <g id="svg_34"/>
  <g id="svg_35"/>
  <g id="svg_36"/>
  <g id="svg_37"/>
  <g id="svg_38"/>
  <g id="svg_39"/>
  <g id="svg_40"/>
  <g id="svg_41"/>
  <g id="svg_42"/>
  <g id="svg_43"/>
  <g id="svg_44"/>
  <g id="svg_45"/>
  <g id="svg_46"/>
  <g id="svg_47"/>
 </g>
</svg>